<svg width="24" height="24" viewBox="0 0 24 24" fill="none" xmlns="http://www.w3.org/2000/svg">
<g clip-path="url(#clip0_1918_9229)">
<path d="M10.856 13.1442C9.7494 12.048 8.85503 10.7566 8.21802 9.33518C8.15943 9.19661 8.14393 9.0436 8.17354 8.89609C8.20315 8.74858 8.2765 8.61341 8.38402 8.50818L9.20302 7.69018C9.87402 7.01918 9.87402 6.07018 9.28802 5.48418L8.11402 4.31018C7.73897 3.93524 7.23035 3.72461 6.70002 3.72461C6.1697 3.72461 5.66108 3.93524 5.28602 4.31018L4.63402 4.96218C3.89302 5.70318 3.58402 6.77218 3.78402 7.83218C4.27802 10.4452 5.79602 13.3062 8.24502 15.7552C10.694 18.2042 13.555 19.7222 16.168 20.2162C17.228 20.4162 18.297 20.1072 19.038 19.3662L19.689 18.7152C20.064 18.3401 20.2746 17.8315 20.2746 17.3012C20.2746 16.7709 20.064 16.2622 19.689 15.8872L18.516 14.7142C18.2347 14.433 17.8533 14.275 17.4555 14.275C17.0578 14.275 16.6763 14.433 16.395 14.7142L15.492 15.6182C15.3868 15.7257 15.2516 15.7991 15.1041 15.8287C14.9566 15.8583 14.8036 15.8428 14.665 15.7842C13.2437 15.1461 11.9524 14.2511 10.856 13.1442V13.1442Z" stroke="#D6D6D6" stroke-width="1.5" stroke-linecap="round" stroke-linejoin="round"/>
</g>
<defs>
<clipPath id="clip0_1918_9229">
<rect width="24" height="24" fill="white"/>
</clipPath>
</defs>
</svg>
