<svg width="24" height="24" viewBox="0 0 24 24" fill="none" xmlns="http://www.w3.org/2000/svg">
<path fill-rule="evenodd" clip-rule="evenodd" d="M8.24878 6.4368C8.24878 6.02258 8.58457 5.6868 8.99878 5.6868H20.0034C20.4176 5.6868 20.7534 6.02258 20.7534 6.4368C20.7534 6.85101 20.4176 7.1868 20.0034 7.1868H8.99878C8.58457 7.1868 8.24878 6.85101 8.24878 6.4368Z" fill="white"/>
<path fill-rule="evenodd" clip-rule="evenodd" d="M8.24878 12.0001C8.24878 11.5859 8.58457 11.2501 8.99878 11.2501H20.0034C20.4176 11.2501 20.7534 11.5859 20.7534 12.0001C20.7534 12.4143 20.4176 12.7501 20.0034 12.7501H8.99878C8.58457 12.7501 8.24878 12.4143 8.24878 12.0001Z" fill="white"/>
<path fill-rule="evenodd" clip-rule="evenodd" d="M8.24878 17.5634C8.24878 17.1492 8.58457 16.8134 8.99878 16.8134H20.0034C20.4176 16.8134 20.7534 17.1492 20.7534 17.5634C20.7534 17.9776 20.4176 18.3134 20.0034 18.3134H8.99878C8.58457 18.3134 8.24878 17.9776 8.24878 17.5634Z" fill="white"/>
<path fill-rule="evenodd" clip-rule="evenodd" d="M3.2467 6.4368C3.2467 5.74633 3.80644 5.18659 4.49691 5.18659C5.18738 5.18659 5.74712 5.74633 5.74712 6.4368C5.74712 7.12727 5.18738 7.68701 4.49691 7.68701C3.80644 7.68701 3.2467 7.12727 3.2467 6.4368Z" fill="white"/>
<path fill-rule="evenodd" clip-rule="evenodd" d="M3.2467 12.0001C3.2467 11.3096 3.80644 10.7499 4.49691 10.7499C5.18738 10.7499 5.74712 11.3096 5.74712 12.0001C5.74712 12.6906 5.18738 13.2503 4.49691 13.2503C3.80644 13.2503 3.2467 12.6906 3.2467 12.0001Z" fill="white"/>
<path fill-rule="evenodd" clip-rule="evenodd" d="M3.2467 17.5634C3.2467 16.873 3.80644 16.3132 4.49691 16.3132C5.18738 16.3132 5.74712 16.873 5.74712 17.5634C5.74712 18.2539 5.18738 18.8136 4.49691 18.8136C3.80644 18.8136 3.2467 18.2539 3.2467 17.5634Z" fill="white"/>
</svg>
